<?xml version="1.0" encoding="UTF-8"?>
<svg xmlns="http://www.w3.org/2000/svg" height="432" width="432">
  <rect fill="black" height="432" width="432" />
  <path fill="white" d="m 363.40192,293.99177 c -3.4e-4,12.11532 -2.01954,23.894 -6.05762,35.33608 -4.03873,11.44222 -10.60114,22.71609 -19.68724,33.82167 -8.75019,11.10565 -22.04327,20.02379 -39.87928,26.75446 C 279.94122,396.63466 258.73959,400 234.17284,400 l -165.574758,0 0,-367.999992 164.060358,0 c 22.88408,3.68e-4 42.57131,3.365705 59.06172,10.096022 16.82642,6.731032 29.27817,15.480909 37.35528,26.249656 8.41304,10.432877 14.47065,20.697156 18.17284,30.792866 3.70155,10.096308 5.55249,20.024058 5.55281,29.783268 -3.2e-4,15.81735 -3.87046,29.44697 -11.61042,40.88888 -7.74059,11.44238 -20.69714,23.05279 -38.86968,34.83128 40.7203,23.89409 61.08059,53.67732 61.08093,89.34979 M 144.31825,95.100144 l 0,83.292176 82.28257,0 c 35.67238,2.2e-4 53.50866,-13.79766 53.50892,-41.39369 -2.6e-4,-27.93203 -17.83654,-41.898181 -53.50892,-41.898486 l -82.28257,0 m 0,146.392316 0,95.4074 90.35939,0 c 37.35504,7e-5 56.03266,-15.81702 56.03292,-47.4513 -2.6e-4,-31.97059 -18.67788,-47.95594 -56.03292,-47.9561 l -90.35939,0" />
</svg>
